ply
format ascii 1.0
comment Created by Blender 2.63 (sub 0) - www.blender.org, source file: 'PringlesDosefinal.blend'
element vertex 518
property float x
property float y
property float z
property float nx
property float ny
property float nz
property float s
property float t
element face 480
property list uchar uint vertex_indices
end_header
0.000000 0.000000 -1.000000 0.000000 0.000000 -1.000000 0.382360 0.655640
0.000000 1.000000 -1.000000 0.000000 0.000000 -1.000000 0.417406 0.540111
0.195090 0.980785 -1.000000 0.000000 0.000000 -1.000000 0.439271 0.549168
0.000000 0.000000 1.000000 0.000000 0.000000 1.000000 0.608395 0.322384
0.195092 0.980785 1.000000 0.000000 0.000000 0.999969 0.536922 0.123895
0.000002 1.000000 1.000000 0.000000 0.000000 1.000000 0.491988 0.139537
0.382683 0.923880 -1.000000 0.000000 0.000000 -0.999969 0.458949 0.562316
0.382685 0.923879 1.000000 0.000000 0.000000 1.000000 0.584800 0.115949
0.555570 0.831470 -1.000000 0.000000 0.000000 -0.999969 0.475684 0.579051
0.555572 0.831469 1.000000 0.000000 0.000000 0.999969 0.633897 0.116160
0.707107 0.707107 -1.000000 0.000000 0.000000 -1.000000 0.488833 0.598730
0.707108 0.707105 1.000000 0.000000 0.000000 1.000000 0.681975 0.124415
0.831470 0.555570 -1.000000 0.000000 0.000000 -0.999969 0.497890 0.620595
0.831471 0.555569 1.000000 0.000000 0.000000 0.999969 0.726819 0.140412
0.923880 0.382683 -1.000000 0.000000 0.000000 -1.000000 0.502507 0.643807
0.923880 0.382682 1.000000 0.000000 0.000000 0.999969 0.766876 0.163398
0.980785 0.195090 -1.000000 0.000000 0.000000 -1.000000 0.502507 0.667474
0.980786 0.195088 1.000000 0.000000 0.000000 0.999969 0.800708 0.192441
1.000000 0.000000 -1.000000 0.000000 0.000000 -0.999969 0.497890 0.690686
1.000000 -0.000002 1.000000 0.000000 0.000000 1.000000 0.827084 0.226417
0.980785 -0.195090 -1.000000 0.000000 0.000000 -0.999969 0.488833 0.712551
0.980785 -0.195092 1.000000 0.000000 0.000000 1.000000 0.845021 0.264001
0.923880 -0.382683 -1.000000 0.000000 0.000000 -1.000000 0.475684 0.732229
0.923879 -0.382685 1.000000 0.000000 0.000000 1.000000 0.853861 0.303753
0.831470 -0.555570 -1.000000 0.000000 0.000000 -0.999969 0.458950 0.748964
0.831469 -0.555571 1.000000 0.000000 0.000000 1.000000 0.853291 0.344132
0.707107 -0.707107 -1.000000 0.000000 0.000000 -1.000000 0.439271 0.762113
0.707106 -0.707107 1.000000 0.000000 0.000000 1.000000 0.843370 0.383586
0.555570 -0.831470 -1.000000 0.000000 0.000000 -0.999969 0.417406 0.771170
0.555570 -0.831470 1.000000 0.000000 0.000000 1.000000 0.824548 0.420593
0.382683 -0.923880 -1.000000 0.000000 0.000000 -0.999969 0.394194 0.775787
0.382684 -0.923880 1.000000 0.000000 0.000000 1.000000 0.797667 0.453729
0.195090 -0.980785 -1.000000 0.000000 0.000000 -1.000000 0.370527 0.775787
0.195091 -0.980785 1.000000 0.000000 0.000000 1.000000 0.763338 0.481939
-0.000000 -1.000000 -1.000000 0.000000 0.000000 -0.999969 0.347315 0.771170
0.000001 -1.000000 1.000000 0.000000 0.000000 1.000000 0.723029 0.504223
-0.195091 -0.980785 -1.000000 0.000000 0.000000 -0.999969 0.325450 0.762113
-0.195089 -0.980786 1.000000 0.000000 0.000000 1.000000 0.678585 0.519373
-0.382684 -0.923879 -1.000000 0.000000 0.000000 -1.000000 0.305771 0.748964
-0.382682 -0.923880 1.000000 0.000000 0.000000 1.000000 0.631864 0.527019
-0.555571 -0.831469 -1.000000 0.000000 0.000000 -0.999969 0.289037 0.732229
-0.555568 -0.831471 1.000000 0.000000 0.000000 1.000000 0.584276 0.526951
-0.707107 -0.707106 -1.000000 0.000000 0.000000 -0.999969 0.275888 0.712551
-0.707105 -0.707109 1.000000 0.000000 0.000000 1.000000 0.537279 0.519192
-0.831470 -0.555570 -1.000000 0.000000 0.000000 -1.000000 0.266831 0.690686
-0.831468 -0.555573 1.000000 0.000000 0.000000 1.000000 0.492805 0.503909
-0.923880 -0.382683 -1.000000 0.000000 0.000000 -0.999969 0.262214 0.667474
-0.923878 -0.382686 1.000000 0.000000 0.000000 1.000000 0.452650 0.481633
-0.980785 -0.195089 -1.000000 0.000000 0.000000 -1.000000 0.262214 0.643807
-0.980785 -0.195094 1.000000 0.000000 0.000000 1.000000 0.418411 0.453198
-1.000000 0.000001 -1.000000 0.000000 0.000000 -0.999969 0.266831 0.620595
-1.000000 -0.000004 1.000000 0.000000 0.000000 1.000000 0.391429 0.419681
-0.980785 0.195091 -1.000000 0.000000 0.000000 -0.999969 0.275888 0.598730
-0.980786 0.195086 1.000000 0.000000 0.000000 1.000000 0.372765 0.382369
-0.923879 0.382684 -1.000000 0.000000 0.000000 -1.000000 0.289037 0.579051
-0.923881 0.382679 1.000000 0.000000 0.000000 1.000000 0.363149 0.342690
-0.831469 0.555571 -1.000000 0.000000 0.000000 -0.999969 0.305772 0.562316
-0.831473 0.555566 1.000000 0.000000 0.000000 1.000000 0.362969 0.302181
-0.707106 0.707108 -1.000000 0.000000 0.000000 -1.000000 0.325450 0.549168
-0.707111 0.707103 1.000000 0.000000 0.000000 1.000000 0.372246 0.262390
-0.555569 0.831470 -1.000000 0.000000 0.000000 -0.999969 0.347315 0.540111
-0.555575 0.831466 1.000000 0.000000 0.000000 1.000000 0.390635 0.224855
-0.382682 0.923880 -1.000000 0.000000 0.000000 -0.999969 0.370527 0.535494
-0.382689 0.923877 1.000000 0.000000 0.000000 1.000000 0.417443 0.191027
-0.195089 0.980786 -1.000000 0.000000 0.000000 -1.000000 0.394194 0.535494
-0.195097 0.980784 1.000000 0.000000 0.000000 1.000000 0.451657 0.162214
-0.195097 0.980784 1.000000 -0.137944 0.693503 0.707083 0.447948 0.157893
0.000002 1.000000 1.000000 0.000000 0.707083 0.707083 0.489356 0.134684
-0.382689 0.923877 1.000000 -0.270577 0.653279 0.707083 0.412801 0.187401
-0.555575 0.831466 1.000000 -0.392834 0.587909 0.707083 0.385241 0.222061
-0.707111 0.707103 1.000000 -0.499985 0.499985 0.707083 0.366309 0.260532
-0.831473 0.555566 1.000000 -0.587939 0.392834 0.707083 0.356717 0.301331
-0.923881 0.382679 1.000000 -0.653279 0.270577 0.707083 0.356824 0.342880
-0.980786 0.195086 1.000000 -0.693503 0.137944 0.707083 0.366610 0.383587
-1.000000 -0.000004 1.000000 -0.707083 0.000000 0.707083 0.385681 0.421881
-0.980785 -0.195094 1.000000 -0.693503 -0.137944 0.707083 0.413291 0.456292
-0.923878 -0.382686 1.000000 -0.653279 -0.270577 0.707083 0.448354 0.485500
-0.831468 -0.555573 1.000000 -0.587909 -0.392834 0.707083 0.489496 0.508396
-0.707105 -0.707109 1.000000 -0.499985 -0.499985 0.707083 0.535079 0.524118
-0.555568 -0.831471 1.000000 -0.392834 -0.587909 0.707083 0.583254 0.532112
-0.382682 -0.923880 1.000000 -0.270577 -0.653279 0.707083 0.632046 0.532233
-0.195089 -0.980786 1.000000 -0.137944 -0.693503 0.707083 0.679968 0.524479
0.000001 -1.000000 1.000000 0.000000 -0.707083 0.707083 0.725591 0.509043
0.195091 -0.980785 1.000000 0.137944 -0.693503 0.707083 0.766967 0.486255
0.382684 -0.923880 1.000000 0.270577 -0.653279 0.707083 0.802209 0.457361
0.555570 -0.831470 1.000000 0.392834 -0.587909 0.707083 0.829840 0.423410
0.707106 -0.707107 1.000000 0.499985 -0.499985 0.707083 0.849232 0.385499
0.831469 -0.555571 1.000000 0.587909 -0.392834 0.707083 0.859498 0.345057
0.923879 -0.382685 1.000000 0.653279 -0.270577 0.707083 0.860172 0.303648
0.980785 -0.195092 1.000000 0.693503 -0.137944 0.707083 0.851195 0.262868
1.000000 -0.000002 1.000000 0.707083 0.000000 0.707083 0.832882 0.224293
0.980786 0.195088 1.000000 0.693503 0.137944 0.707083 0.805908 0.189409
0.923880 0.382682 1.000000 0.653279 0.270577 0.707083 0.771274 0.159564
0.831471 0.555569 1.000000 0.587909 0.392834 0.707083 0.730246 0.135917
0.707108 0.707105 1.000000 0.499985 0.499985 0.707083 0.684284 0.119412
0.555572 0.831469 1.000000 0.392834 0.587909 0.707083 0.634985 0.110858
0.382685 0.923879 1.000000 0.270577 0.653279 0.707083 0.584614 0.110581
0.195092 0.980785 1.000000 0.137944 0.693503 0.707083 0.535475 0.118690
0.000002 1.000000 1.000000 0.000000 0.000000 -1.000000 0.486726 0.129857
0.195092 0.980785 1.000000 0.000000 0.000000 -1.000000 0.534023 0.113510
0.382685 0.923879 1.000000 0.000000 0.000000 -1.000000 0.584410 0.105235
0.555572 0.831469 1.000000 0.000000 0.000000 -0.999969 0.636061 0.105571
0.707108 0.707105 1.000000 0.000000 0.000000 -1.000000 0.686588 0.114425
0.831471 0.555569 1.000000 0.000000 0.000000 -1.000000 0.733658 0.131434
0.923880 0.382682 1.000000 0.000000 0.000000 -1.000000 0.775654 0.155741
0.980786 0.195088 1.000000 0.000000 0.000000 -1.000000 0.811086 0.186381
1.000000 -0.000002 1.000000 0.000000 0.000000 -0.999969 0.838659 0.222172
0.980785 -0.195092 1.000000 0.000000 0.000000 -1.000000 0.857347 0.261732
0.923879 -0.382685 1.000000 0.000000 0.000000 -0.999969 0.866463 0.303537
0.831469 -0.555571 1.000000 0.000000 0.000000 -0.999969 0.865685 0.345973
0.707106 -0.707107 1.000000 0.000000 0.000000 -1.000000 0.855076 0.387402
0.555570 -0.831470 1.000000 0.000000 0.000000 -0.999969 0.835115 0.426215
0.382684 -0.923880 1.000000 0.000000 0.000000 -0.999969 0.806749 0.460971
0.195091 -0.980785 1.000000 0.000000 0.000000 -0.999969 0.770595 0.490548
0.000001 -1.000000 1.000000 0.000000 0.000000 -1.000000 0.728141 0.513849
-0.195089 -0.980786 1.000000 0.000000 0.000000 -1.000000 0.681343 0.529567
-0.382682 -0.923880 1.000000 0.000000 0.000000 -1.000000 0.632236 0.537429
-0.555568 -0.831471 1.000000 0.000000 0.000000 -1.000000 0.582256 0.537250
-0.707105 -0.707109 1.000000 0.000000 0.000000 -1.000000 0.532901 0.529024
-0.831468 -0.555573 1.000000 0.000000 0.000000 -1.000000 0.486211 0.512867
-0.923878 -0.382686 1.000000 0.000000 0.000000 -0.999969 0.444086 0.489356
-0.980785 -0.195094 1.000000 0.000000 0.000000 -1.000000 0.408200 0.459379
-1.000000 -0.000004 1.000000 0.000000 0.000000 -1.000000 0.379963 0.424079
-0.980786 0.195086 1.000000 0.000000 0.000000 -1.000000 0.360486 0.384808
-0.923881 0.382679 1.000000 0.000000 0.000000 -1.000000 0.350529 0.343077
-0.831473 0.555566 1.000000 0.000000 0.000000 -0.999969 0.350493 0.300492
-0.707111 0.707103 1.000000 0.000000 0.000000 -1.000000 0.360396 0.258691
-0.555575 0.831466 1.000000 0.000000 0.000000 -0.999969 0.379867 0.219286
-0.382689 0.923877 1.000000 0.000000 0.000000 -1.000000 0.408174 0.183797
-0.195097 0.980784 1.000000 0.000000 0.000000 -1.000000 0.444247 0.153597
-0.201432 1.012632 1.000000 -0.142003 0.713889 -0.685690 0.438971 0.148268
0.000002 1.032472 1.000000 0.000000 0.727866 -0.685690 0.482790 0.123756
-0.395116 0.953877 1.000000 -0.278542 0.672475 -0.685690 0.401763 0.179439
-0.573616 0.858465 1.000000 -0.404370 0.605213 -0.685690 0.372569 0.216063
-0.730072 0.730064 1.000000 -0.514695 0.514664 -0.685690 0.352493 0.256726
-0.858472 0.573606 1.000000 -0.605213 0.404370 -0.685690 0.342291 0.299857
-0.953881 0.395105 1.000000 -0.672475 0.278542 -0.685690 0.342342 0.343795
-1.012634 0.201421 1.000000 -0.713889 0.141972 -0.685690 0.352629 0.386850
-1.032472 -0.000004 1.000000 -0.727866 0.000000 -0.685690 0.372739 0.427364
-1.012632 -0.201429 1.000000 -0.713889 -0.142003 -0.685690 0.401887 0.463779
-0.953878 -0.395113 1.000000 -0.672475 -0.278542 -0.685690 0.438925 0.494697
-0.858467 -0.573613 1.000000 -0.605213 -0.404370 -0.685690 0.482398 0.518937
-0.730066 -0.730069 1.000000 -0.514664 -0.514695 -0.685690 0.530578 0.535579
-0.573609 -0.858470 1.000000 -0.404370 -0.605213 -0.685690 0.581499 0.544016
-0.395108 -0.953880 1.000000 -0.278542 -0.672475 -0.685690 0.632963 0.544016
-0.201424 -1.012633 1.000000 -0.142003 -0.713889 -0.685690 0.683573 0.536110
0.000001 -1.032472 1.000000 0.000000 -0.727866 -0.685690 0.731877 0.519964
0.201426 -1.012633 1.000000 0.142003 -0.713889 -0.685690 0.775858 0.496017
0.395110 -0.953879 1.000000 0.278542 -0.672475 -0.685690 0.812868 0.465253
0.573610 -0.858469 1.000000 0.404370 -0.605213 -0.685690 0.842229 0.429546
0.730067 -0.730068 1.000000 0.514664 -0.514664 -0.685690 0.862858 0.389523
0.858468 -0.573611 1.000000 0.605213 -0.404370 -0.685690 0.873828 0.346787
0.953879 -0.395111 1.000000 0.672475 -0.278542 -0.685690 0.874652 0.303006
1.012633 -0.201427 1.000000 0.713889 -0.142003 -0.685690 0.865265 0.259873
1.032472 -0.000002 1.000000 0.727866 0.000000 -0.685690 0.846001 0.219052
1.012633 0.201423 1.000000 0.713889 0.141972 -0.685690 0.817570 0.182116
0.953880 0.395108 1.000000 0.672475 0.278542 -0.685690 0.781030 0.150488
0.858470 0.573609 1.000000 0.605213 0.404370 -0.685690 0.737717 0.125382
0.730069 0.730066 1.000000 0.514695 0.514664 -0.685690 0.689171 0.107780
0.573612 0.858468 1.000000 0.404370 0.605213 -0.685690 0.636975 0.098443
0.395112 0.953879 1.000000 0.278542 0.672475 -0.685690 0.583570 0.098275
0.201427 1.012633 1.000000 0.142003 0.713889 -0.685690 0.531582 0.106863
0.201427 1.012633 1.000000 0.142003 0.713889 -0.685690 0.549880 0.131229
0.000002 1.032472 1.000000 0.000000 0.727866 -0.685690 0.506618 0.147688
0.000002 1.032472 1.100499 0.000000 0.727866 0.685690 0.496732 0.126820
0.201427 1.012633 1.100499 0.142003 0.713889 0.685690 0.543434 0.107625
0.395112 0.953879 1.000000 0.278542 0.672475 -0.685690 0.596159 0.123184
0.395112 0.953879 1.100499 0.278542 0.672475 0.685690 0.594680 0.098301
0.573612 0.858468 1.000000 0.404370 0.605213 -0.685690 0.643178 0.124979
0.573612 0.858468 1.100499 0.404370 0.605213 0.685690 0.647069 0.100323
0.730069 0.730066 1.000000 0.514695 0.514664 -0.685690 0.688472 0.136730
0.730069 0.730066 1.100499 0.514695 0.514664 0.685690 0.697539 0.113659
0.858470 0.573609 1.000000 0.605213 0.404370 -0.685690 0.729744 0.157750
0.858470 0.573609 1.100499 0.605213 0.404370 0.685690 0.743433 0.137432
0.953880 0.395108 1.000000 0.672475 0.278542 -0.685690 0.765005 0.186784
0.953880 0.395108 1.100499 0.672475 0.278542 0.685690 0.782503 0.170178
1.012633 0.201423 1.000000 0.713889 0.141972 -0.685690 0.792662 0.222147
1.012633 0.201423 1.100499 0.713889 0.141972 0.685690 0.812966 0.209974
1.032472 -0.000002 1.000000 0.727866 0.000000 -0.685690 0.811597 0.261841
1.032472 -0.000002 1.100499 0.727866 0.000000 0.685690 0.833567 0.254546
1.012633 -0.201427 1.000000 0.713889 -0.142003 -0.685690 0.821221 0.303670
1.012633 -0.201427 1.100499 0.713889 -0.142003 0.685690 0.843651 0.301406
0.953879 -0.395111 1.000000 0.672475 -0.278542 -0.685690 0.821512 0.345380
0.953879 -0.395111 1.100499 0.672475 -0.278542 0.685690 0.843199 0.347988
0.858468 -0.573611 1.000000 0.605213 -0.404370 -0.685690 0.813022 0.384788
0.858468 -0.573611 1.100499 0.605213 -0.404370 0.685690 0.832839 0.391806
0.730067 -0.730068 1.000000 0.514664 -0.514664 -0.685690 0.796865 0.419926
0.730067 -0.730068 1.100499 0.514664 -0.514664 0.685690 0.813829 0.430587
0.573610 -0.858469 1.000000 0.404370 -0.605213 -0.685690 0.774657 0.449202
0.573610 -0.858469 1.100499 0.404370 -0.605213 0.685690 0.788061 0.462431
0.395110 -0.953879 1.000000 0.278542 -0.672475 -0.685690 0.748132 0.471743
0.395110 -0.953879 1.100499 0.278542 -0.672475 0.685690 0.758130 0.486276
0.201426 -1.012633 1.000000 0.142003 -0.713889 -0.685690 0.720824 0.487070
0.201426 -1.012633 1.100499 0.142003 -0.713889 0.685690 0.727404 0.502782
0.000001 -1.032472 1.000000 0.000000 -0.727866 -0.685690 0.686872 0.495871
0.000001 -1.032472 1.100499 0.000000 -0.727866 0.685690 0.693053 0.515209
-0.201424 -1.012633 1.000000 -0.142003 -0.713889 -0.685690 0.643522 0.509439
-0.201424 -1.012633 1.100499 -0.142003 -0.713889 0.685690 0.649379 0.532045
-0.395108 -0.953880 1.000000 -0.278542 -0.672475 -0.685690 0.597753 0.517707
-0.395108 -0.953880 1.100499 -0.278542 -0.672475 0.685690 0.599658 0.542114
-0.573609 -0.858470 1.000000 -0.404370 -0.605213 -0.685690 0.551032 0.516951
-0.573609 -0.858470 1.100499 -0.404370 -0.605213 0.685690 0.547769 0.541472
-0.730066 -0.730069 1.000000 -0.514664 -0.514695 -0.685690 0.505782 0.506356
-0.730066 -0.730069 1.100499 -0.514664 -0.514695 0.685690 0.497319 0.529454
-0.858467 -0.573613 1.000000 -0.605213 -0.404370 -0.685690 0.464403 0.486438
-0.858467 -0.573613 1.100499 -0.605213 -0.404370 0.685690 0.451270 0.506845
-0.953878 -0.395113 1.000000 -0.672475 -0.278542 -0.685690 0.428963 0.458454
-0.953878 -0.395113 1.100499 -0.672475 -0.278542 0.685690 0.411998 0.475171
-1.012632 -0.201429 1.000000 -0.713889 -0.142003 -0.685690 0.401081 0.424139
-1.012632 -0.201429 1.100499 -0.713889 -0.142003 0.685690 0.381325 0.436440
-1.032472 -0.000004 1.000000 -0.727866 0.000000 -0.685690 0.381866 0.385547
-1.032472 -0.000004 1.100499 -0.727866 0.000000 0.685690 0.360492 0.393000
-1.012634 0.201421 1.000000 -0.713889 0.141972 -0.685690 0.371863 0.344926
-1.012634 0.201421 1.100499 -0.713889 0.141972 0.685690 0.350106 0.347412
-0.953881 0.395105 1.000000 -0.672475 0.278542 -0.685690 0.371016 0.304574
-0.953881 0.395105 1.100499 -0.672475 0.278542 0.685690 0.350106 0.302301
-0.858472 0.573606 1.000000 -0.605213 0.404370 -0.685690 0.378660 0.266699
-0.858472 0.573606 1.100499 -0.605213 0.404370 0.685690 0.359744 0.260211
-0.730072 0.730064 1.000000 -0.514695 0.514664 -0.685690 0.393541 0.233239
-0.730072 0.730064 1.100499 -0.514695 0.514664 0.685690 0.377555 0.223450
-0.573616 0.858465 1.000000 -0.404370 0.605213 -0.685690 0.414124 0.205441
-0.573616 0.858465 1.100499 -0.404370 0.605213 0.685690 0.401190 0.193632
-0.395116 0.953877 1.000000 -0.278542 0.672475 -0.685690 0.437037 0.184569
-0.395116 0.953877 1.100499 -0.278542 0.672475 0.685690 0.427203 0.170832
-0.201432 1.012632 1.000000 -0.142003 0.713889 -0.685690 0.467439 0.168754
-0.201432 1.012632 1.100499 -0.142003 0.713889 0.685690 0.457672 0.151420
0.000001 -1.032472 1.100499 0.000000 -0.727866 0.685690 0.780470 0.498674
0.000000 0.000000 1.100499 0.000000 0.000000 1.000000 0.607021 0.324338
-0.201424 -1.012633 1.100499 -0.142003 -0.713889 0.685690 0.818370 0.467412
0.201426 -1.012633 1.100499 0.142003 -0.713889 0.685690 0.735905 0.523236
0.395110 -0.953879 1.100499 0.278542 -0.672475 0.685690 0.686388 0.540155
0.573610 -0.858469 1.100499 0.404370 -0.605213 0.685690 0.633820 0.545678
0.730067 -0.730068 1.100499 0.514664 -0.514664 0.685690 0.580222 0.547516
0.858468 -0.573611 1.100499 0.605213 -0.404370 0.685690 0.527655 0.540155
0.953879 -0.395111 1.100499 0.672475 -0.278542 0.685690 0.478137 0.523236
1.012633 -0.201427 1.100499 0.713889 -0.142003 0.685690 0.433572 0.498674
1.032472 -0.000002 1.100499 0.727866 0.000000 0.685690 0.395673 0.467412
1.012633 0.201423 1.100499 0.713889 0.141972 0.685690 0.365895 0.430652
0.953880 0.395108 1.100499 0.672475 0.278542 0.685690 0.345385 0.389806
0.858470 0.573609 1.100499 0.605213 0.404370 0.685690 0.334928 0.346444
0.730069 0.730066 1.100499 0.514695 0.514664 0.685690 0.334928 0.302233
0.573612 0.858468 1.100499 0.404370 0.605213 0.685690 0.345384 0.258872
0.395112 0.953879 1.100499 0.278542 0.672475 0.685690 0.365895 0.218026
0.201427 1.012633 1.100499 0.142003 0.713889 0.685690 0.395672 0.181265
0.000002 1.032472 1.100499 0.000000 0.727866 0.685690 0.433571 0.150003
-0.201432 1.012632 1.100499 -0.142003 0.713889 0.685690 0.478138 0.125440
-0.395116 0.953877 1.100499 -0.278542 0.672475 0.685690 0.527656 0.108522
-0.573616 0.858465 1.100499 -0.404370 0.605213 0.685690 0.580224 0.099897
-0.730072 0.730064 1.100499 -0.514695 0.514664 0.685690 0.633821 0.099897
-0.858472 0.573606 1.100499 -0.605213 0.404370 0.685690 0.686389 0.108522
-0.953881 0.395105 1.100499 -0.672475 0.278542 0.685690 0.735906 0.125441
-1.012634 0.201421 1.100499 -0.713889 0.141972 0.685690 0.780471 0.150003
-1.032472 -0.000004 1.100499 -0.727866 0.000000 0.685690 0.818370 0.181265
-1.012632 -0.201429 1.100499 -0.713889 -0.142003 0.685690 0.848147 0.218026
-0.953878 -0.395113 1.100499 -0.672475 -0.278542 0.685690 0.868658 0.258872
-0.858467 -0.573613 1.100499 -0.605213 -0.404370 0.685690 0.879114 0.302233
-0.730066 -0.730069 1.100499 -0.514664 -0.514695 0.685690 0.879114 0.346444
-0.573609 -0.858470 1.100499 -0.404370 -0.605213 0.685690 0.868658 0.389806
-0.395108 -0.953880 1.100499 -0.278542 -0.672475 0.685690 0.848147 0.430652
0.193670 0.973646 -0.993143 -0.141789 -0.712882 0.686758 0.279980 0.294587
0.000000 0.992721 -0.993143 0.000000 -0.726859 0.686758 0.272675 0.295997
0.000000 0.000000 -0.990000 0.000000 0.000000 1.000000 0.267812 0.257613
0.000002 0.992721 0.993143 0.000000 -0.756981 -0.653401 0.474857 0.122248
0.193672 0.973646 0.993143 -0.147679 -0.742424 -0.653401 0.524650 0.105263
0.000000 0.000000 0.990000 0.000000 0.000000 -0.999969 0.604455 0.321935
0.379898 0.917155 -0.993143 -0.278146 -0.671529 0.686758 0.286941 0.291743
0.379900 0.917154 0.993143 -0.289773 -0.699423 -0.653279 0.577509 0.096604
0.551527 0.825417 -0.993143 -0.403821 -0.604358 0.686758 0.293267 0.287554
0.551528 0.825416 0.993143 -0.420423 -0.629444 -0.653432 0.631404 0.096604
0.701960 0.701960 -0.993143 -0.513962 -0.513962 0.686758 0.298695 0.282164
0.701961 0.701959 0.993143 -0.535203 -0.535051 -0.653645 0.684263 0.105264
0.825418 0.551526 -0.993143 -0.604358 -0.403821 0.686758 0.302994 0.275772
0.825419 0.551525 0.993143 -0.629505 -0.420454 -0.653371 0.734056 0.122250
0.917155 0.379898 -0.993143 -0.671529 -0.278146 0.686758 0.305980 0.268616
0.917156 0.379896 0.993143 -0.699423 -0.289773 -0.653279 0.778867 0.146910
0.973646 0.193670 -0.993143 -0.712882 -0.141789 0.686758 0.307520 0.260967
0.973647 0.193668 0.993143 -0.742424 -0.147679 -0.653401 0.816976 0.178296
0.992721 0.000000 -0.993143 -0.726859 0.000000 0.686758 0.307538 0.253117
0.992721 -0.000002 0.993143 -0.756981 0.000000 -0.653401 0.846918 0.215202
0.973646 -0.193670 -0.993143 -0.712882 0.141789 0.686758 0.306014 0.245365
0.973646 -0.193672 0.993143 -0.742424 0.147679 -0.653401 0.867543 0.256209
0.917155 -0.379898 -0.993143 -0.671529 0.278146 0.686758 0.302988 0.238008
0.917154 -0.379899 0.993143 -0.699423 0.289773 -0.653279 0.878057 0.299743
0.825418 -0.551526 -0.993143 -0.604358 0.403821 0.686758 0.298554 0.231330
0.825417 -0.551527 0.993143 -0.629261 0.420270 -0.653706 0.878056 0.344129
0.701960 -0.701960 -0.993143 -0.513962 0.513962 0.686758 0.292855 0.225594
0.701960 -0.701961 0.993143 -0.534745 0.534745 -0.654256 0.867542 0.387662
0.551526 -0.825418 -0.993143 -0.403821 0.604358 0.686758 0.286081 0.221029
0.551526 -0.825418 0.993143 -0.420270 0.629261 -0.653706 0.846917 0.428670
0.379898 -0.917155 -0.993143 -0.278146 0.671529 0.686758 0.278366 0.218335
0.379898 -0.917155 0.993143 -0.289773 0.699423 -0.653279 0.816974 0.465575
0.193670 -0.973646 -0.993143 -0.141789 0.712882 0.686758 0.270347 0.217202
0.193671 -0.973646 0.993143 -0.147679 0.742424 -0.653401 0.778865 0.496961
-0.000000 -0.992721 -0.993143 0.000000 0.726859 0.686758 0.262322 0.217647
0.000001 -0.992721 0.993143 0.000000 0.756981 -0.653401 0.734053 0.521620
-0.193671 -0.973646 -0.993143 0.141789 0.712882 0.686758 0.254585 0.219632
-0.193669 -0.973647 0.993143 0.147679 0.742424 -0.653401 0.684261 0.538606
-0.379898 -0.917155 -0.993143 0.278146 0.671529 0.686758 0.247420 0.223067
-0.379896 -0.917155 0.993143 0.289773 0.699423 -0.653279 0.631402 0.547265
-0.551527 -0.825417 -0.993143 0.403821 0.604358 0.686758 0.241089 0.227811
-0.551525 -0.825419 0.993143 0.420454 0.629505 -0.653371 0.577507 0.547265
-0.701961 -0.701959 -0.993143 0.513962 0.513962 0.686758 0.235825 0.233674
-0.701958 -0.701962 0.993143 0.535051 0.535173 -0.653645 0.524648 0.538606
-0.825418 -0.551526 -0.993143 0.604358 0.403821 0.686758 0.231818 0.240427
-0.825416 -0.551529 0.993143 0.629444 0.420423 -0.653432 0.474856 0.521620
-0.917155 -0.379897 -0.993143 0.671529 0.278146 0.686758 0.229215 0.247808
-0.917153 -0.379901 0.993143 0.699423 0.289773 -0.653279 0.430044 0.496960
-0.973647 -0.193669 -0.993143 0.712882 0.141789 0.686758 0.228105 0.255532
-0.973646 -0.193674 0.993143 0.742424 0.147679 -0.653401 0.391935 0.465575
-0.992721 0.000001 -0.993143 0.726859 0.000000 0.686758 0.228523 0.263300
-0.992721 -0.000004 0.993143 0.756951 0.000000 -0.653462 0.361992 0.428669
-0.973646 0.193671 -0.993143 0.712882 -0.141789 0.686758 0.230445 0.270812
-0.973647 0.193666 0.993143 0.742302 -0.147526 -0.653584 0.341368 0.387661
-0.917154 0.379899 -0.993143 0.671529 -0.278146 0.686758 0.233787 0.277777
-0.917157 0.379893 0.993143 0.699026 -0.289590 -0.653798 0.330853 0.344128
-0.825417 0.551528 -0.993143 0.604358 -0.403821 0.686758 0.238407 0.283930
-0.825420 0.551522 0.993143 0.628925 -0.420179 -0.654103 0.330853 0.299742
-0.701959 0.701961 -0.993143 0.513962 -0.513962 0.686758 0.244115 0.289036
-0.701964 0.701956 0.993143 0.534959 -0.534867 -0.653981 0.341367 0.256209
-0.551525 0.825418 -0.993143 0.403821 -0.604358 0.686758 0.250675 0.292904
-0.551532 0.825414 0.993143 0.420423 -0.629444 -0.653432 0.361992 0.215201
-0.379897 0.917155 -0.993143 0.278146 -0.671529 0.686758 0.257818 0.295396
-0.379904 0.917152 0.993143 0.289773 -0.699423 -0.653279 0.391934 0.178295
-0.193669 0.973647 -0.993143 0.141789 -0.712882 0.686758 0.265252 0.296433
-0.193677 0.973645 0.993143 0.147679 -0.742424 -0.653401 0.430044 0.146909
0.193672 0.973646 0.993143 -0.147679 -0.742424 -0.653401 0.356393 0.521180
0.000002 0.992721 0.993143 0.000000 -0.756981 -0.653401 0.302376 0.535494
0.379900 0.917154 0.993143 -0.289773 -0.699423 -0.653279 0.405926 0.496667
0.551528 0.825416 0.993143 -0.420423 -0.629444 -0.653432 0.449147 0.463184
0.701961 0.701959 0.993143 -0.535203 -0.535051 -0.653645 0.484531 0.422259
0.825419 0.551525 0.993143 -0.629505 -0.420454 -0.653371 0.510900 0.375660
0.917156 0.379896 0.993143 -0.699423 -0.289773 -0.653279 0.527455 0.325313
0.973647 0.193668 0.993143 -0.742424 -0.147679 -0.653401 0.533793 0.273233
0.992721 -0.000002 0.993143 -0.756981 0.000000 -0.653401 0.529913 0.221439
0.973646 -0.193672 0.993143 -0.742424 0.147679 -0.653401 0.516201 0.171884
0.917154 -0.379899 0.993143 -0.699423 0.289773 -0.653279 0.493406 0.126374
0.825417 -0.551527 0.993143 -0.629261 0.420270 -0.653706 0.462595 0.086511
0.701960 -0.701961 0.993143 -0.534745 0.534745 -0.654256 0.425110 0.053631
0.551526 -0.825418 0.993143 -0.420270 0.629261 -0.653706 0.382626 0.028819
0.379898 -0.917155 0.993143 -0.289773 0.699423 -0.653279 0.337222 0.010137
0.193671 -0.973646 0.993143 -0.147679 0.742424 -0.653401 0.288588 0.000328
0.000001 -0.992721 0.993143 0.000000 0.756981 -0.653401 0.238609 0.000000
-0.193669 -0.973647 0.993143 0.147679 0.742424 -0.653401 0.189143 0.009339
-0.379896 -0.917155 0.993143 0.289773 0.699423 -0.653279 0.142074 0.028161
-0.551525 -0.825419 0.993143 0.420454 0.629505 -0.653371 0.099231 0.055909
-0.701958 -0.701962 0.993143 0.535051 0.535173 -0.653645 0.062322 0.091667
-0.825416 -0.551529 0.993143 0.629444 0.420423 -0.653432 0.032855 0.134191
-0.917153 -0.379901 0.993143 0.699423 0.289773 -0.653279 0.012081 0.181951
-0.973646 -0.193674 0.993143 0.742424 0.147679 -0.653401 0.000936 0.233183
-0.992721 -0.000004 0.993143 0.756951 0.000000 -0.653462 0.000000 0.285957
-0.973647 0.193666 0.993143 0.742302 -0.147526 -0.653584 0.009468 0.338246
-0.917157 0.379893 0.993143 0.699026 -0.289590 -0.653798 0.029134 0.388003
-0.825420 0.551522 0.993143 0.628925 -0.420179 -0.654103 0.058392 0.433241
-0.701964 0.701956 0.993143 0.534959 -0.534867 -0.653981 0.096251 0.472108
-0.551532 0.825414 0.993143 0.420423 -0.629444 -0.653432 0.141362 0.502960
-0.379904 0.917152 0.993143 0.289773 -0.699423 -0.653279 0.192064 0.524433
-0.193677 0.973645 0.993143 0.147679 -0.742424 -0.653401 0.246440 0.535494
-0.193718 0.973849 0.992929 0.046297 -0.232765 0.971404 0.477353 0.129785
-0.193677 0.973645 0.993143 0.147679 -0.742424 -0.653401 0.474530 0.124754
0.000002 0.992721 0.993143 0.000000 -0.756981 -0.653401 0.522695 0.107487
0.000002 0.992929 0.992929 0.000000 -0.237342 0.971404 0.524688 0.112896
-0.379984 0.917344 0.992929 0.090823 -0.219275 0.971404 0.435308 0.153631
-0.379904 0.917152 0.993143 0.289773 -0.699423 -0.653279 0.431069 0.149261
-0.551647 0.825587 0.992929 0.131870 -0.197333 0.971404 0.398210 0.183210
-0.551532 0.825414 0.993143 0.420423 -0.629444 -0.653432 0.392753 0.179782
-0.702111 0.702103 0.992929 0.167699 -0.167760 0.971435 0.367949 0.219402
-0.701964 0.701956 0.993143 0.534959 -0.534867 -0.653981 0.361776 0.216692
-0.825593 0.551637 0.992929 0.197211 -0.131779 0.971435 0.349308 0.260263
-0.825420 0.551522 0.993143 0.628925 -0.420179 -0.654103 0.342811 0.258695
-0.917349 0.379973 0.992929 0.219214 -0.090762 0.971435 0.338850 0.302846
-0.917157 0.379893 0.993143 0.699026 -0.289590 -0.653798 0.331977 0.302339
-0.973851 0.193706 0.992929 0.232734 -0.046327 0.971404 0.340199 0.346298
-0.973647 0.193666 0.993143 0.742302 -0.147526 -0.653584 0.333464 0.346612
-0.992929 -0.000004 0.992929 0.237312 0.000000 0.971404 0.351123 0.388167
-0.992721 -0.000004 0.993143 0.756951 0.000000 -0.653462 0.344588 0.389541
-0.973850 -0.193715 0.992929 0.232765 0.046297 0.971404 0.371456 0.427246
-0.973646 -0.193674 0.993143 0.742424 0.147679 -0.653401 0.365386 0.429657
-0.917345 -0.379981 0.992929 0.219275 0.090823 0.971404 0.400363 0.461853
-0.917153 -0.379901 0.993143 0.699423 0.289773 -0.653279 0.395166 0.465398
-0.825589 -0.551644 0.992929 0.197333 0.131870 0.971404 0.435692 0.492405
-0.825416 -0.551529 0.993143 0.629444 0.420423 -0.653432 0.431696 0.496929
-0.702105 -0.702109 0.992929 0.167791 0.167760 0.971435 0.479300 0.516746
-0.701958 -0.701962 0.993143 0.535051 0.535173 -0.653645 0.476115 0.521844
-0.551640 -0.825592 0.992929 0.131870 0.197333 0.971404 0.527831 0.532414
-0.551525 -0.825419 0.993143 0.420454 0.629505 -0.653371 0.525665 0.537675
-0.379976 -0.917347 0.992929 0.090823 0.219275 0.971404 0.577557 0.539349
-0.379896 -0.917155 0.993143 0.289773 0.699423 -0.653279 0.576999 0.544861
-0.193710 -0.973851 0.992929 0.046297 0.232765 0.971404 0.627563 0.539553
-0.193669 -0.973647 0.993143 0.147679 0.742424 -0.653401 0.628555 0.544971
0.000001 -0.992929 0.992929 0.000000 0.237342 0.971404 0.677786 0.531898
0.000001 -0.992721 0.993143 0.000000 0.756981 -0.653401 0.679719 0.537294
0.193711 -0.973850 0.992929 -0.046297 0.232765 0.971404 0.725216 0.515153
0.193671 -0.973646 0.993143 -0.147679 0.742424 -0.653401 0.728020 0.520188
0.379978 -0.917347 0.992929 -0.090823 0.219275 0.971404 0.767228 0.491440
0.379898 -0.917155 0.993143 -0.289773 0.699423 -0.653279 0.771446 0.495814
0.551642 -0.825591 0.992929 -0.131840 0.197272 0.971435 0.804244 0.462144
0.551526 -0.825418 0.993143 -0.420270 0.629261 -0.653706 0.809649 0.465534
0.702106 -0.702107 0.992929 -0.167699 0.167699 0.971465 0.834235 0.426023
0.701960 -0.701961 0.993143 -0.534745 0.534745 -0.654256 0.840364 0.428744
0.825590 -0.551643 0.992929 -0.197272 0.131840 0.971435 0.853476 0.385310
0.825417 -0.551527 0.993143 -0.629261 0.420270 -0.653706 0.859811 0.387147
0.917346 -0.379979 0.992929 -0.219275 0.090823 0.971404 0.862053 0.343897
0.917154 -0.379899 0.993143 -0.699423 0.289773 -0.653279 0.868683 0.344409
0.973850 -0.193713 0.992929 -0.232765 0.046297 0.971404 0.862849 0.302015
0.973646 -0.193672 0.993143 -0.742424 0.147679 -0.653401 0.869431 0.301225
0.992929 -0.000002 0.992929 -0.237342 0.000000 0.971404 0.853775 0.259722
0.992721 -0.000002 0.993143 -0.756981 0.000000 -0.653401 0.860308 0.258107
0.973851 0.193709 0.992929 -0.232765 -0.046297 0.971404 0.833536 0.220023
0.973647 0.193668 0.993143 -0.742424 -0.147679 -0.653401 0.839633 0.217667
0.917348 0.379976 0.992929 -0.219275 -0.090823 0.971404 0.804944 0.184728
0.917156 0.379896 0.993143 -0.699423 -0.289773 -0.653279 0.810211 0.181216
0.825592 0.551640 0.992929 -0.197333 -0.131870 0.971404 0.769791 0.153806
0.825419 0.551525 0.993143 -0.629505 -0.420454 -0.653371 0.773869 0.149310
0.702108 0.702106 0.992929 -0.167760 -0.167791 0.971435 0.726542 0.128772
0.701961 0.701959 0.993143 -0.535203 -0.535051 -0.653645 0.729867 0.123658
0.551643 0.825589 0.992929 -0.131870 -0.197333 0.971404 0.677320 0.112146
0.551528 0.825416 0.993143 -0.420423 -0.629444 -0.653432 0.679600 0.106778
0.379979 0.917346 0.992929 -0.090823 -0.219275 0.971404 0.626378 0.104900
0.379900 0.917154 0.993143 -0.289773 -0.699423 -0.653279 0.626953 0.099256
0.193713 0.973850 0.992929 -0.046297 -0.232765 0.971404 0.575314 0.104755
0.193672 0.973646 0.993143 -0.147679 -0.742424 -0.653401 0.574262 0.099256
0.000002 1.000000 1.010000 0.000000 -0.473556 0.880734 0.526636 0.118184
0.195092 0.980785 1.010000 -0.092380 -0.464461 0.880734 0.575806 0.110138
0.382685 0.923879 1.010000 -0.181219 -0.437513 0.880734 0.625690 0.110294
0.555572 0.831469 1.010000 -0.263100 -0.393750 0.880734 0.675496 0.117489
0.707108 0.707105 1.010000 -0.334849 -0.334849 0.880734 0.723322 0.133745
0.831471 0.555569 1.010000 -0.393750 -0.263100 0.880734 0.765480 0.157981
0.923880 0.382682 1.010000 -0.437513 -0.181219 0.880734 0.799978 0.188176
0.980786 0.195088 1.010000 -0.464461 -0.092380 0.880734 0.827745 0.222644
1.000000 -0.000002 1.010000 -0.473556 0.000000 0.880734 0.847404 0.261217
0.980785 -0.195092 1.010000 -0.464461 0.092380 0.880734 0.856411 0.302363
0.923879 -0.382685 1.010000 -0.437513 0.181219 0.880734 0.855701 0.343301
0.831469 -0.555571 1.010000 -0.393750 0.263100 0.880734 0.847164 0.383831
0.707106 -0.707107 1.010000 -0.334849 0.334849 0.880734 0.828281 0.423376
0.555570 -0.831470 1.010000 -0.263100 0.393750 0.880734 0.799221 0.458564
0.382684 -0.923880 1.010000 -0.181219 0.437513 0.880734 0.763087 0.487315
0.195091 -0.980785 1.010000 -0.092380 0.464461 0.880734 0.722035 0.510471
0.000001 -1.000000 1.010000 0.000000 0.473556 0.880734 0.675883 0.526627
-0.195089 -0.980786 1.010000 0.092380 0.464461 0.880734 0.627108 0.534245
-0.382682 -0.923880 1.010000 0.181219 0.437513 0.880734 0.578223 0.534074
-0.555568 -0.831471 1.010000 0.263100 0.393750 0.880734 0.529556 0.527170
-0.707105 -0.707109 1.010000 0.334849 0.334849 0.880734 0.482405 0.511798
-0.831468 -0.555573 1.010000 0.393750 0.263100 0.880734 0.439914 0.488201
-0.923878 -0.382686 1.010000 0.437513 0.181219 0.880734 0.405260 0.458367
-0.980785 -0.195094 1.010000 0.464461 0.092380 0.880734 0.377101 0.424533
-1.000000 -0.000004 1.010000 0.473556 0.000000 0.880734 0.357311 0.386416
-0.980786 0.195086 1.010000 0.464461 -0.092380 0.880734 0.346773 0.345636
-0.923881 0.382679 1.010000 0.437513 -0.181219 0.880734 0.345513 0.303417
-0.831473 0.555566 1.010000 0.393750 -0.263100 0.880734 0.355556 0.261883
-0.707111 0.707103 1.010000 0.334849 -0.334849 0.880734 0.373985 0.222062
-0.555575 0.831466 1.010000 0.263100 -0.393750 0.880734 0.403384 0.186770
-0.382689 0.923877 1.010000 0.181219 -0.437513 0.880734 0.439487 0.157772
-0.195097 0.980784 1.010000 0.092380 -0.464461 0.880734 0.480559 0.134461
-0.200012 1.005493 1.006857 0.133946 -0.673452 0.726981 0.483722 0.139229
0.000002 1.025193 1.006857 0.000000 -0.686636 0.726981 0.528497 0.123242
-0.392331 0.947152 1.006857 0.262764 -0.634358 0.726981 0.443612 0.161982
-0.569572 0.852413 1.006857 0.381481 -0.570910 0.726951 0.408462 0.190353
-0.724925 0.724917 1.006857 0.485519 -0.485519 0.726951 0.380195 0.224795
-0.852420 0.569562 1.006857 0.570910 -0.381481 0.726951 0.361919 0.263450
-0.947157 0.392320 1.006857 0.634388 -0.262764 0.726981 0.352181 0.303922
-1.005495 0.200001 1.006857 0.673452 -0.133946 0.726981 0.353321 0.344996
-1.025193 -0.000004 1.006857 0.686636 0.000000 0.726981 0.363575 0.384756
-1.005493 -0.200009 1.006857 0.673452 0.133946 0.726981 0.382807 0.421913
-0.947153 -0.392327 1.006857 0.634358 0.262764 0.726951 0.410075 0.455057
-0.852415 -0.569569 1.006857 0.570910 0.381481 0.726981 0.444306 0.483819
-0.724919 -0.724923 1.006857 0.485519 0.485519 0.726981 0.485507 0.506884
-0.569565 -0.852418 1.006857 0.381481 0.570910 0.726981 0.531320 0.521887
-0.392323 -0.947155 1.006857 0.262764 0.634358 0.726981 0.578797 0.528768
-0.200004 -1.005494 1.006857 0.133946 0.673452 0.726981 0.626556 0.529056
0.000001 -1.025193 1.006857 0.000000 0.686636 0.726981 0.673979 0.521409
0.200006 -1.005494 1.006857 -0.133946 0.673452 0.726951 0.718896 0.505694
0.392325 -0.947155 1.006857 -0.262764 0.634388 0.726951 0.759001 0.483120
0.569567 -0.852417 1.006857 -0.381481 0.570910 0.726951 0.794138 0.454971
0.724921 -0.724922 1.006857 -0.485519 0.485519 0.726951 0.822142 0.420644
0.852416 -0.569568 1.006857 -0.570910 0.381481 0.726951 0.840808 0.382316
0.947154 -0.392326 1.006857 -0.634388 0.262764 0.726951 0.849531 0.342813
1.005494 -0.200007 1.006857 -0.673452 0.133946 0.726951 0.849923 0.302825
1.025193 -0.000002 1.006857 -0.686636 0.000000 0.726951 0.841054 0.262816
1.005495 0.200003 1.006857 -0.673452 -0.133946 0.726981 0.821986 0.225259
0.947155 0.392322 1.006857 -0.634358 -0.262764 0.726981 0.794914 0.191584
0.852418 0.569565 1.006857 -0.570910 -0.381481 0.726981 0.761151 0.162204
0.724922 0.724920 1.006857 -0.485519 -0.485519 0.726951 0.720137 0.138695
0.569568 0.852416 1.006857 -0.381481 -0.570910 0.726951 0.673591 0.123054
0.392326 0.947154 1.006857 -0.262764 -0.634358 0.726981 0.625092 0.115723
0.200007 1.005494 1.006857 -0.133946 -0.673452 0.726981 0.576394 0.115577
0.000002 1.025193 1.093642 0.000000 -0.726890 -0.686728 0.534795 0.139736
0.200007 1.005494 1.093642 -0.141789 -0.712912 -0.686728 0.578595 0.132696
0.392326 0.947154 1.093642 -0.278146 -0.671560 -0.686728 0.623453 0.132887
0.569568 0.852416 1.093642 -0.403821 -0.604389 -0.686728 0.667948 0.139935
0.724922 0.724920 1.093642 -0.513993 -0.513993 -0.686728 0.710271 0.154322
0.852418 0.569565 1.093642 -0.604389 -0.403821 -0.686728 0.747785 0.175627
0.947155 0.392322 1.093642 -0.671560 -0.278146 -0.686728 0.779055 0.202504
1.005495 0.200003 1.093642 -0.712912 -0.141789 -0.686728 0.803911 0.233570
1.025193 -0.000002 1.093642 -0.726890 0.000000 -0.686728 0.821190 0.267966
1.005494 -0.200007 1.093642 -0.712912 0.141789 -0.686728 0.829494 0.304517
0.947154 -0.392326 1.093642 -0.671560 0.278146 -0.686728 0.829217 0.341390
0.852416 -0.569568 1.093642 -0.604389 0.403821 -0.686728 0.820815 0.377687
0.724921 -0.724922 1.093642 -0.513993 0.513993 -0.686728 0.803504 0.412547
0.569567 -0.852417 1.093642 -0.403821 0.604389 -0.686728 0.778010 0.443874
0.392325 -0.947155 1.093642 -0.278146 0.671560 -0.686728 0.745898 0.469979
0.200006 -1.005494 1.093642 -0.141789 0.712912 -0.686728 0.708911 0.490697
0.000001 -1.025193 1.093642 0.000000 0.726890 -0.686728 0.667812 0.505033
-0.200004 -1.005494 1.093642 0.141789 0.712912 -0.686728 0.624422 0.512113
-0.392323 -0.947155 1.093642 0.278146 0.671560 -0.686728 0.580356 0.511952
-0.569565 -0.852418 1.093642 0.403821 0.604389 -0.686728 0.536720 0.505274
-0.724919 -0.724923 1.093642 0.513993 0.513993 -0.686728 0.495018 0.491337
-0.852415 -0.569569 1.093642 0.604389 0.403821 -0.686728 0.457379 0.470350
-0.947153 -0.392327 1.093642 0.671560 0.278146 -0.686728 0.425733 0.444012
-1.005493 -0.200009 1.093642 0.712912 0.141789 -0.686728 0.400690 0.413474
-1.025193 -0.000004 1.093642 0.726890 0.000000 -0.686728 0.383171 0.379340
-1.005495 0.200001 1.093642 0.712912 -0.141789 -0.686728 0.373885 0.342809
-0.947157 0.392320 1.093642 0.671560 -0.278146 -0.686728 0.373174 0.305269
-0.852420 0.569562 1.093642 0.604389 -0.403821 -0.686728 0.382035 0.268164
-0.724925 0.724917 1.093642 0.513993 -0.513962 -0.686728 0.399063 0.232923
-0.569572 0.852413 1.093642 0.403821 -0.604389 -0.686728 0.424666 0.201450
-0.392331 0.947152 1.093642 0.278176 -0.671560 -0.686728 0.456812 0.175132
-0.200012 1.005493 1.093642 0.141789 -0.712912 -0.686728 0.493795 0.154220
0.000000 0.000000 1.090499 0.000000 0.000000 -1.000000 0.601732 0.322744
3 0 1 2
3 3 4 5
3 0 2 6
3 3 7 4
3 0 6 8
3 3 9 7
3 0 8 10
3 3 11 9
3 0 10 12
3 3 13 11
3 0 12 14
3 3 15 13
3 0 14 16
3 3 17 15
3 0 16 18
3 3 19 17
3 0 18 20
3 3 21 19
3 0 20 22
3 3 23 21
3 0 22 24
3 3 25 23
3 0 24 26
3 3 27 25
3 0 26 28
3 3 29 27
3 0 28 30
3 3 31 29
3 0 30 32
3 3 33 31
3 0 32 34
3 3 35 33
3 0 34 36
3 3 37 35
3 0 36 38
3 3 39 37
3 0 38 40
3 3 41 39
3 0 40 42
3 3 43 41
3 0 42 44
3 3 45 43
3 0 44 46
3 3 47 45
3 0 46 48
3 3 49 47
3 0 48 50
3 3 51 49
3 0 50 52
3 3 53 51
3 0 52 54
3 3 55 53
3 0 54 56
3 3 57 55
3 0 56 58
3 3 59 57
3 0 58 60
3 3 61 59
3 0 60 62
3 3 63 61
3 0 62 64
3 3 65 63
3 64 1 0
3 3 5 65
4 5 65 66 67
4 65 63 68 66
4 63 61 69 68
4 61 59 70 69
4 59 57 71 70
4 57 55 72 71
4 55 53 73 72
4 53 51 74 73
4 51 49 75 74
4 49 47 76 75
4 47 45 77 76
4 45 43 78 77
4 43 41 79 78
4 41 39 80 79
4 39 37 81 80
4 37 35 82 81
4 35 33 83 82
4 33 31 84 83
4 31 29 85 84
4 29 27 86 85
4 27 25 87 86
4 25 23 88 87
4 23 21 89 88
4 21 19 90 89
4 19 17 91 90
4 17 15 92 91
4 15 13 93 92
4 13 11 94 93
4 11 9 95 94
4 9 7 96 95
4 7 4 97 96
4 4 5 67 97
4 97 67 98 99
4 96 97 99 100
4 95 96 100 101
4 94 95 101 102
4 93 94 102 103
4 92 93 103 104
4 91 92 104 105
4 90 91 105 106
4 89 90 106 107
4 88 89 107 108
4 87 88 108 109
4 86 87 109 110
4 85 86 110 111
4 84 85 111 112
4 83 84 112 113
4 82 83 113 114
4 81 82 114 115
4 80 81 115 116
4 79 80 116 117
4 78 79 117 118
4 77 78 118 119
4 76 77 119 120
4 75 76 120 121
4 74 75 121 122
4 73 74 122 123
4 72 73 123 124
4 71 72 124 125
4 70 71 125 126
4 69 70 126 127
4 68 69 127 128
4 66 68 128 129
4 67 66 129 98
4 98 129 130 131
4 129 128 132 130
4 128 127 133 132
4 127 126 134 133
4 126 125 135 134
4 125 124 136 135
4 124 123 137 136
4 123 122 138 137
4 122 121 139 138
4 121 120 140 139
4 120 119 141 140
4 119 118 142 141
4 118 117 143 142
4 117 116 144 143
4 116 115 145 144
4 115 114 146 145
4 114 113 147 146
4 113 112 148 147
4 112 111 149 148
4 111 110 150 149
4 110 109 151 150
4 109 108 152 151
4 108 107 153 152
4 107 106 154 153
4 106 105 155 154
4 105 104 156 155
4 104 103 157 156
4 103 102 158 157
4 102 101 159 158
4 101 100 160 159
4 100 99 161 160
4 99 98 131 161
4 162 163 164 165
4 166 162 165 167
4 168 166 167 169
4 170 168 169 171
4 172 170 171 173
4 174 172 173 175
4 176 174 175 177
4 178 176 177 179
4 180 178 179 181
4 182 180 181 183
4 184 182 183 185
4 186 184 185 187
4 188 186 187 189
4 190 188 189 191
4 192 190 191 193
4 194 192 193 195
4 196 194 195 197
4 198 196 197 199
4 200 198 199 201
4 202 200 201 203
4 204 202 203 205
4 206 204 205 207
4 208 206 207 209
4 210 208 209 211
4 212 210 211 213
4 214 212 213 215
4 216 214 215 217
4 218 216 217 219
4 220 218 219 221
4 222 220 221 223
4 224 222 223 225
4 163 224 225 164
3 226 227 228
3 229 227 226
3 230 227 229
3 231 227 230
3 232 227 231
3 233 227 232
3 234 227 233
3 235 227 234
3 236 227 235
3 237 227 236
3 238 227 237
3 239 227 238
3 240 227 239
3 241 227 240
3 242 227 241
3 243 227 242
3 244 227 243
3 244 245 227
3 246 227 245
3 247 227 246
3 248 227 247
3 249 227 248
3 250 227 249
3 251 227 250
3 252 227 251
3 253 227 252
3 254 227 253
3 255 227 254
3 256 227 255
3 257 227 256
3 258 227 257
3 228 227 258
3 259 260 261
3 262 263 264
3 265 259 261
3 263 266 264
3 267 265 261
3 266 268 264
3 269 267 261
3 268 270 264
3 271 269 261
3 270 272 264
3 273 271 261
3 272 274 264
3 275 273 261
3 274 276 264
3 277 275 261
3 276 278 264
3 279 277 261
3 278 280 264
3 281 279 261
3 280 282 264
3 283 281 261
3 282 284 264
3 285 283 261
3 284 286 264
3 287 285 261
3 286 288 264
3 289 287 261
3 288 290 264
3 291 289 261
3 290 292 264
3 293 291 261
3 292 294 264
3 295 293 261
3 294 296 264
3 297 295 261
3 296 298 264
3 299 297 261
3 298 300 264
3 301 299 261
3 300 302 264
3 303 301 261
3 302 304 264
3 305 303 261
3 304 306 264
3 307 305 261
3 306 308 264
3 309 307 261
3 308 310 264
3 311 309 261
3 310 312 264
3 313 311 261
3 312 314 264
3 315 313 261
3 314 316 264
3 317 315 261
3 316 318 264
3 319 317 261
3 318 320 264
3 321 319 261
3 320 322 264
3 323 321 261
3 322 324 264
3 261 260 323
3 324 262 264
4 325 326 260 259
4 327 325 259 265
4 328 327 265 267
4 329 328 267 269
4 330 329 269 271
4 331 330 271 273
4 332 331 273 275
4 333 332 275 277
4 334 333 277 279
4 335 334 279 281
4 336 335 281 283
4 337 336 283 285
4 338 337 285 287
4 339 338 287 289
4 340 339 289 291
4 341 340 291 293
4 342 341 293 295
4 343 342 295 297
4 344 343 297 299
4 345 344 299 301
4 346 345 301 303
4 347 346 303 305
4 348 347 305 307
4 349 348 307 309
4 350 349 309 311
4 351 350 311 313
4 352 351 313 315
4 353 352 315 317
4 354 353 317 319
4 355 354 319 321
4 356 355 321 323
4 323 260 326 356
4 357 358 359 360
4 361 362 358 357
4 363 364 362 361
4 365 366 364 363
4 367 368 366 365
4 369 370 368 367
4 371 372 370 369
4 373 374 372 371
4 375 376 374 373
4 377 378 376 375
4 379 380 378 377
4 381 382 380 379
4 383 384 382 381
4 385 386 384 383
4 387 388 386 385
4 389 390 388 387
4 391 392 390 389
4 393 394 392 391
4 395 396 394 393
4 397 398 396 395
4 399 400 398 397
4 401 402 400 399
4 403 404 402 401
4 405 406 404 403
4 407 408 406 405
4 409 410 408 407
4 411 412 410 409
4 413 414 412 411
4 415 416 414 413
4 417 418 416 415
4 419 420 418 417
4 360 359 420 419
4 421 360 419 422
4 422 419 417 423
4 423 417 415 424
4 424 415 413 425
4 425 413 411 426
4 426 411 409 427
4 427 409 407 428
4 428 407 405 429
4 429 405 403 430
4 430 403 401 431
4 431 401 399 432
4 432 399 397 433
4 433 397 395 434
4 434 395 393 435
4 435 393 391 436
4 436 391 389 437
4 437 389 387 438
4 438 387 385 439
4 439 385 383 440
4 440 383 381 441
4 441 381 379 442
4 442 379 377 443
4 443 377 375 444
4 444 375 373 445
4 445 373 371 446
4 446 371 369 447
4 447 369 367 448
4 448 367 365 449
4 449 365 363 450
4 450 363 361 451
4 451 361 357 452
4 452 357 360 421
4 453 452 421 454
4 455 451 452 453
4 456 450 451 455
4 457 449 450 456
4 458 448 449 457
4 459 447 448 458
4 460 446 447 459
4 461 445 446 460
4 462 444 445 461
4 463 443 444 462
4 464 442 443 463
4 465 441 442 464
4 466 440 441 465
4 467 439 440 466
4 468 438 439 467
4 469 437 438 468
4 470 436 437 469
4 471 435 436 470
4 472 434 435 471
4 473 433 434 472
4 474 432 433 473
4 475 431 432 474
4 476 430 431 475
4 477 429 430 476
4 478 428 429 477
4 479 427 428 478
4 480 426 427 479
4 481 425 426 480
4 482 424 425 481
4 483 423 424 482
4 484 422 423 483
4 454 421 422 484
4 485 454 484 486
4 486 484 483 487
4 487 483 482 488
4 488 482 481 489
4 489 481 480 490
4 490 480 479 491
4 491 479 478 492
4 492 478 477 493
4 493 477 476 494
4 494 476 475 495
4 495 475 474 496
4 496 474 473 497
4 497 473 472 498
4 498 472 471 499
4 499 471 470 500
4 500 470 469 501
4 501 469 468 502
4 502 468 467 503
4 503 467 466 504
4 504 466 465 505
4 505 465 464 506
4 506 464 463 507
4 507 463 462 508
4 508 462 461 509
4 509 461 460 510
4 510 460 459 511
4 511 459 458 512
4 512 458 457 513
4 513 457 456 514
4 514 456 455 515
4 515 455 453 516
4 516 453 454 485
3 502 517 501
3 501 517 500
3 500 517 499
3 499 517 498
3 498 517 497
3 497 517 496
3 496 517 495
3 495 517 494
3 494 517 493
3 493 517 492
3 492 517 491
3 491 517 490
3 490 517 489
3 489 517 488
3 488 517 487
3 487 517 486
3 486 517 485
3 517 516 485
3 516 517 515
3 515 517 514
3 514 517 513
3 513 517 512
3 512 517 511
3 511 517 510
3 510 517 509
3 509 517 508
3 508 517 507
3 507 517 506
3 506 517 505
3 505 517 504
3 504 517 503
3 503 517 502
